<svg width="64" height="62" viewBox="0 0 64 62" fill="none" xmlns="http://www.w3.org/2000/svg">
<path d="M21.6833 20.6101L31.9833 8.52675M18.05 1.14341C14.8587 1.13945 11.7318 2.04094 9.03236 3.74317C6.33296 5.44541 4.17187 7.87853 2.8001 10.76C1.42833 13.6414 0.902161 16.8528 1.28271 20.0214C1.66326 23.1899 2.93492 26.1854 4.94998 28.6601V28.6601L32 60.4101L58.7833 28.9767L58.9166 28.8267L59.05 28.6601C60.5128 26.896 61.6011 24.8525 62.2487 22.6543C62.8963 20.456 63.0896 18.1488 62.8168 15.8735C62.544 13.5981 61.8108 11.402 60.6619 9.41914C59.513 7.43624 57.9724 5.708 56.134 4.33971C54.2957 2.97141 52.198 1.99169 49.9687 1.46025C47.7395 0.928805 45.4255 0.856755 43.1675 1.24849C40.9095 1.64023 38.755 2.48755 36.835 3.73883C34.9151 4.99012 33.27 6.61917 32 8.52675C30.4569 6.25199 28.3802 4.38973 25.9513 3.10268C23.5225 1.81563 20.8154 1.14295 18.0666 1.14341H18.05Z" stroke="white" stroke-width="2" stroke-linecap="round" stroke-linejoin="round"/>
</svg>
