<svg width="31" height="30" viewBox="0 0 31 30" fill="none" xmlns="http://www.w3.org/2000/svg">
<path fill-rule="evenodd" clip-rule="evenodd" d="M9.95625 1.3325C11.4225 1.265 11.89 1.25 15.625 1.25C19.36 1.25 19.8275 1.26625 21.2925 1.3325C22.7575 1.39875 23.7575 1.6325 24.6325 1.97125C25.5487 2.3175 26.38 2.85875 27.0675 3.55875C27.7675 4.245 28.3075 5.075 28.6525 5.9925C28.9925 6.8675 29.225 7.8675 29.2925 9.33C29.36 10.7988 29.375 11.2663 29.375 15C29.375 18.735 29.3588 19.2025 29.2925 20.6687C29.2263 22.1312 28.9925 23.1312 28.6525 24.0062C28.3075 24.9239 27.7666 25.7552 27.0675 26.4425C26.38 27.1425 25.5487 27.6825 24.6325 28.0275C23.7575 28.3675 22.7575 28.6 21.295 28.6675C19.8275 28.735 19.36 28.75 15.625 28.75C11.89 28.75 11.4225 28.7338 9.95625 28.6675C8.49375 28.6013 7.49375 28.3675 6.61875 28.0275C5.70115 27.6825 4.86978 27.1416 4.1825 26.4425C3.48297 25.7558 2.94164 24.9249 2.59625 24.0075C2.2575 23.1325 2.025 22.1325 1.9575 20.67C1.89 19.2012 1.875 18.7337 1.875 15C1.875 11.265 1.89125 10.7975 1.9575 9.3325C2.02375 7.8675 2.2575 6.8675 2.59625 5.9925C2.94215 5.0751 3.4839 4.24414 4.18375 3.5575C4.87005 2.85813 5.70059 2.3168 6.6175 1.97125C7.4925 1.6325 8.4925 1.4 9.955 1.3325H9.95625ZM21.1812 3.8075C19.7312 3.74125 19.2963 3.7275 15.625 3.7275C11.9537 3.7275 11.5187 3.74125 10.0687 3.8075C8.7275 3.86875 8 4.0925 7.515 4.28125C6.87375 4.53125 6.415 4.8275 5.93375 5.30875C5.47756 5.75256 5.12648 6.29285 4.90625 6.89C4.7175 7.375 4.49375 8.1025 4.4325 9.44375C4.36625 10.8937 4.3525 11.3287 4.3525 15C4.3525 18.6713 4.36625 19.1062 4.4325 20.5562C4.49375 21.8975 4.7175 22.625 4.90625 23.11C5.12625 23.7063 5.4775 24.2475 5.93375 24.6913C6.3775 25.1475 6.91875 25.4988 7.515 25.7188C8 25.9075 8.7275 26.1313 10.0687 26.1925C11.5187 26.2588 11.9525 26.2725 15.625 26.2725C19.2975 26.2725 19.7312 26.2588 21.1812 26.1925C22.5225 26.1313 23.25 25.9075 23.735 25.7188C24.3763 25.4688 24.835 25.1725 25.3163 24.6913C25.7725 24.2475 26.1238 23.7063 26.3438 23.11C26.5325 22.625 26.7563 21.8975 26.8175 20.5562C26.8838 19.1062 26.8975 18.6713 26.8975 15C26.8975 11.3287 26.8838 10.8937 26.8175 9.44375C26.7563 8.1025 26.5325 7.375 26.3438 6.89C26.0938 6.24875 25.7975 5.79 25.3163 5.30875C24.8724 4.85259 24.3321 4.50151 23.735 4.28125C23.25 4.0925 22.5225 3.86875 21.1812 3.8075V3.8075ZM13.8688 19.2387C14.8496 19.647 15.9417 19.7021 16.9587 19.3947C17.9756 19.0872 18.8542 18.4361 19.4445 17.5528C20.0348 16.6695 20.3001 15.6086 20.1951 14.5514C20.09 13.4942 19.6213 12.5062 18.8688 11.7562C18.389 11.2768 17.809 10.9098 17.1704 10.6814C16.5318 10.4531 15.8505 10.3692 15.1756 10.4358C14.5007 10.5023 13.8489 10.7177 13.2673 11.0664C12.6856 11.4151 12.1884 11.8884 11.8116 12.4523C11.4348 13.0162 11.1877 13.6566 11.0881 14.3275C10.9886 14.9983 11.0389 15.6829 11.2357 16.3319C11.4324 16.9809 11.7706 17.5783 12.2259 18.0809C12.6812 18.5835 13.2423 18.979 13.8688 19.2387ZM10.6275 10.0025C11.2838 9.34622 12.0629 8.82563 12.9204 8.47045C13.7778 8.11528 14.6969 7.93247 15.625 7.93247C16.5531 7.93247 17.4722 8.11527 18.3296 8.47045C19.1871 8.82563 19.9662 9.34622 20.6225 10.0025C21.2788 10.6588 21.7994 11.4379 22.1545 12.2954C22.5097 13.1528 22.6925 14.0719 22.6925 15C22.6925 15.9281 22.5097 16.8472 22.1545 17.7046C21.7994 18.5621 21.2788 19.3412 20.6225 19.9975C19.2971 21.3229 17.4994 22.0675 15.625 22.0675C13.7506 22.0675 11.9529 21.3229 10.6275 19.9975C9.30208 18.6721 8.55747 16.8744 8.55747 15C8.55747 13.1256 9.30208 11.3279 10.6275 10.0025V10.0025ZM24.26 8.985C24.4226 8.83159 24.5528 8.6471 24.6429 8.44247C24.7329 8.23783 24.781 8.01721 24.7843 7.79366C24.7875 7.57011 24.7459 7.34818 24.6619 7.14101C24.5778 6.93384 24.453 6.74564 24.295 6.58755C24.1369 6.42946 23.9487 6.3047 23.7415 6.22065C23.5343 6.1366 23.3124 6.09497 23.0888 6.09823C22.8653 6.10149 22.6447 6.14957 22.44 6.23962C22.2354 6.32967 22.0509 6.45987 21.8975 6.6225C21.5991 6.93879 21.4358 7.3589 21.4421 7.79366C21.4485 8.22842 21.624 8.6436 21.9314 8.95105C22.2389 9.25851 22.6541 9.43404 23.0888 9.44037C23.5236 9.44671 23.9437 9.28336 24.26 8.985V8.985Z" fill="white"/>
</svg>
