<svg width="34" height="34" viewBox="0 0 34 34" fill="none" xmlns="http://www.w3.org/2000/svg">
<path fill-rule="evenodd" clip-rule="evenodd" d="M10.5538 1.50713C12.2121 1.43078 12.7409 1.41382 16.9652 1.41382C21.1896 1.41382 21.7183 1.4322 23.3752 1.50713C25.0322 1.58206 26.1632 1.84643 27.1528 2.22956C28.1891 2.62118 29.1293 3.23334 29.9069 4.02505C30.6986 4.80121 31.3093 5.73995 31.6995 6.77766C32.0841 7.7673 32.347 8.89831 32.4234 10.5524C32.4997 12.2136 32.5167 12.7423 32.5167 16.9653C32.5167 21.1896 32.4983 21.7184 32.4234 23.3767C32.3484 25.0308 32.0841 26.1618 31.6995 27.1515C31.3093 28.1893 30.6975 29.1296 29.9069 29.9069C29.1293 30.6986 28.1891 31.3094 27.1528 31.6996C26.1632 32.0841 25.0322 32.3471 23.3781 32.4234C21.7183 32.4998 21.1896 32.5167 16.9652 32.5167C12.7409 32.5167 12.2121 32.4984 10.5538 32.4234C8.89966 32.3485 7.76865 32.0841 6.77901 31.6996C5.74119 31.3093 4.80089 30.6976 4.02357 29.9069C3.2324 29.1303 2.62015 28.1904 2.2295 27.1529C1.84637 26.1633 1.58341 25.0322 1.50707 23.3781C1.43072 21.717 1.41376 21.1882 1.41376 16.9653C1.41376 12.7409 1.43214 12.2122 1.50707 10.5552C1.582 8.89831 1.84637 7.7673 2.2295 6.77766C2.62072 5.74007 3.23345 4.80024 4.02499 4.02364C4.8012 3.23263 5.74056 2.62039 6.7776 2.22956C7.76723 1.84643 8.89825 1.58347 10.5524 1.50713H10.5538ZM23.2494 4.30639C21.6094 4.23146 21.1175 4.21591 16.9652 4.21591C12.813 4.21591 12.321 4.23146 10.681 4.30639C9.16404 4.37566 8.34123 4.62873 7.79268 4.84221C7.06742 5.12496 6.54857 5.46003 6.00427 6.00433C5.4883 6.50629 5.09123 7.11736 4.84215 7.79274C4.62867 8.34129 4.3756 9.1641 4.30633 10.6811C4.2314 12.321 4.21585 12.813 4.21585 16.9653C4.21585 21.1175 4.2314 21.6095 4.30633 23.2495C4.3756 24.7665 4.62867 25.5893 4.84215 26.1378C5.09097 26.8122 5.48824 27.4243 6.00427 27.9262C6.50615 28.4423 7.11831 28.8395 7.79268 29.0883C8.34123 29.3018 9.16404 29.5549 10.681 29.6242C12.321 29.6991 12.8116 29.7146 16.9652 29.7146C21.1189 29.7146 21.6094 29.6991 23.2494 29.6242C24.7664 29.5549 25.5892 29.3018 26.1377 29.0883C26.863 28.8056 27.3819 28.4705 27.9262 27.9262C28.4422 27.4243 28.8395 26.8122 29.0883 26.1378C29.3018 25.5893 29.5548 24.7665 29.6241 23.2495C29.699 21.6095 29.7146 21.1175 29.7146 16.9653C29.7146 12.813 29.699 12.321 29.6241 10.6811C29.5548 9.1641 29.3018 8.34129 29.0883 7.79274C28.8055 7.06748 28.4705 6.54863 27.9262 6.00433C27.4242 5.4884 26.8131 5.09133 26.1377 4.84221C25.5892 4.62873 24.7664 4.37566 23.2494 4.30639ZM14.9789 21.7594C16.0882 22.2211 17.3234 22.2835 18.4736 21.9357C19.6238 21.5879 20.6175 20.8516 21.2851 19.8525C21.9527 18.8535 22.2528 17.6536 22.134 16.4579C22.0153 15.2622 21.485 14.1448 20.6339 13.2965C20.0914 12.7543 19.4354 12.3392 18.7131 12.0809C17.9908 11.8227 17.2203 11.7278 16.457 11.8031C15.6936 11.8784 14.9565 12.122 14.2986 12.5163C13.6407 12.9107 13.0784 13.446 12.6522 14.0838C12.2261 14.7216 11.9466 15.4459 11.834 16.2046C11.7213 16.9633 11.7783 17.7376 12.0008 18.4717C12.2233 19.2057 12.6058 19.8813 13.1208 20.4498C13.6357 21.0183 14.2703 21.4656 14.9789 21.7594ZM11.313 11.313C12.0552 10.5708 12.9364 9.98197 13.9062 9.58026C14.8761 9.17855 15.9155 8.97179 16.9652 8.97179C18.0149 8.97179 19.0544 9.17855 20.0242 9.58026C20.994 9.98197 21.8752 10.5708 22.6175 11.313C23.3597 12.0553 23.9485 12.9365 24.3502 13.9063C24.7519 14.8761 24.9587 15.9156 24.9587 16.9653C24.9587 18.015 24.7519 19.0544 24.3502 20.0243C23.9485 20.9941 23.3597 21.8753 22.6175 22.6175C21.1184 24.1166 19.0852 24.9588 16.9652 24.9588C14.8452 24.9588 12.812 24.1166 11.313 22.6175C9.8139 21.1185 8.97173 19.0853 8.97173 16.9653C8.97173 14.8453 9.8139 12.8121 11.313 11.313ZM26.7315 10.1622C26.9155 9.98871 27.0627 9.78005 27.1646 9.54861C27.2664 9.31716 27.3208 9.06764 27.3245 8.8148C27.3282 8.56196 27.2811 8.31096 27.186 8.07664C27.091 7.84233 26.9499 7.62947 26.7711 7.45067C26.5923 7.27187 26.3794 7.13076 26.1451 7.0357C25.9108 6.94063 25.6598 6.89355 25.4069 6.89724C25.1541 6.90092 24.9046 6.9553 24.6731 7.05715C24.4417 7.15901 24.233 7.30626 24.0595 7.4902C23.7221 7.84792 23.5373 8.32308 23.5445 8.8148C23.5516 9.30652 23.7502 9.77609 24.0979 10.1238C24.4456 10.4716 24.9152 10.6701 25.4069 10.6773C25.8986 10.6844 26.3738 10.4997 26.7315 10.1622Z" fill="white"/>
</svg>
