<svg width="34" height="34" viewBox="0 0 34 34" xmlns="http://www.w3.org/2000/svg">
<path fill-rule="evenodd" clip-rule="evenodd" d="M10.0323 0.0996272C11.803 0.018114 12.3675 0 16.8779 0C21.3883 0 21.9529 0.0196235 23.722 0.0996272C25.4911 0.179631 26.6987 0.461908 27.7554 0.870983C28.8619 1.28912 29.8657 1.94273 30.6959 2.78805C31.5412 3.61677 32.1933 4.61908 32.61 5.72706C33.0205 6.78371 33.3013 7.99131 33.3828 9.75743C33.4643 11.5311 33.4824 12.0956 33.4824 16.6045C33.4824 21.1149 33.4628 21.6795 33.3828 23.4501C33.3028 25.2162 33.0205 26.4239 32.61 27.4805C32.1933 28.5886 31.5401 29.5926 30.6959 30.4225C29.8657 31.2678 28.8619 31.92 27.7554 32.3366C26.6987 32.7472 25.4911 33.0279 23.725 33.1094C21.9529 33.191 21.3883 33.2091 16.8779 33.2091C12.3675 33.2091 11.803 33.1894 10.0323 33.1094C8.2662 33.0294 7.05859 32.7472 6.00194 32.3366C4.89385 31.9199 3.88987 31.2667 3.05992 30.4225C2.21517 29.5933 1.56146 28.5898 1.14436 27.482C0.735284 26.4254 0.454517 25.2178 0.373004 23.4516C0.29149 21.678 0.273376 21.1134 0.273376 16.6045C0.273376 12.0941 0.293 11.5296 0.373004 9.76045C0.453007 7.99131 0.735284 6.78371 1.14436 5.72706C1.56207 4.6192 2.21629 3.61573 3.06143 2.78654C3.89021 1.94198 4.89317 1.28828 6.00043 0.870983C7.05708 0.461908 8.26469 0.18114 10.0308 0.0996272H10.0323ZM23.5877 3.08844C21.8366 3.00844 21.3113 2.99184 16.8779 2.99184C12.4445 2.99184 11.9192 3.00844 10.1682 3.08844C8.54847 3.16241 7.66994 3.43261 7.08425 3.66055C6.30988 3.96245 5.75589 4.3202 5.17473 4.90136C4.62383 5.43731 4.19987 6.08976 3.93392 6.81088C3.70599 7.39657 3.43579 8.2751 3.36182 9.89479C3.28182 11.6458 3.26521 12.1711 3.26521 16.6045C3.26521 21.0379 3.28182 21.5633 3.36182 23.3143C3.43579 24.934 3.70599 25.8125 3.93392 26.3982C4.19959 27.1182 4.62376 27.7718 5.17473 28.3077C5.71061 28.8587 6.36422 29.2829 7.08425 29.5485C7.66994 29.7765 8.54847 30.0467 10.1682 30.1206C11.9192 30.2006 12.443 30.2172 16.8779 30.2172C21.3128 30.2172 21.8366 30.2006 23.5877 30.1206C25.2073 30.0467 26.0859 29.7765 26.6716 29.5485C27.4459 29.2466 27.9999 28.8889 28.5811 28.3077C29.1321 27.7718 29.5562 27.1182 29.8219 26.3982C30.0498 25.8125 30.32 24.934 30.394 23.3143C30.474 21.5633 30.4906 21.0379 30.4906 16.6045C30.4906 12.1711 30.474 11.6458 30.394 9.89479C30.32 8.2751 30.0498 7.39657 29.8219 6.81088C29.52 6.0365 29.1622 5.48252 28.5811 4.90136C28.0451 4.3505 27.3927 3.92654 26.6716 3.66055C26.0859 3.43261 25.2073 3.16241 23.5877 3.08844V3.08844ZM14.7571 21.7233C15.9415 22.2163 17.2604 22.2829 18.4884 21.9115C19.7165 21.5402 20.7775 20.754 21.4904 19.6873C22.2032 18.6206 22.5235 17.3395 22.3967 16.0628C22.2699 14.7861 21.7038 13.593 20.7951 12.6874C20.2158 12.1084 19.5153 11.6652 18.7442 11.3894C17.973 11.1137 17.1503 11.0124 16.3352 11.0928C15.5202 11.1731 14.7331 11.4332 14.0307 11.8543C13.3282 12.2754 12.7279 12.847 12.2729 13.5279C11.8178 14.2089 11.5195 14.9823 11.3992 15.7924C11.2789 16.6025 11.3398 17.4292 11.5774 18.2129C11.8149 18.9967 12.2233 19.7181 12.7732 20.325C13.323 20.932 14.0005 21.4096 14.7571 21.7233ZM10.8429 10.5695C11.6354 9.77701 12.5763 9.14835 13.6118 8.71944C14.6473 8.29052 15.7571 8.06976 16.8779 8.06976C17.9987 8.06976 19.1085 8.29052 20.144 8.71943C21.1795 9.14835 22.1204 9.77701 22.9129 10.5695C23.7054 11.3621 24.3341 12.3029 24.763 13.3384C25.1919 14.3739 25.4127 15.4837 25.4127 16.6045C25.4127 17.7253 25.1919 18.8352 24.763 19.8706C24.3341 20.9061 23.7054 21.847 22.9129 22.6395C21.3123 24.2401 19.1415 25.1393 16.8779 25.1393C14.6143 25.1393 12.4435 24.2401 10.8429 22.6395C9.24234 21.0389 8.34314 18.8681 8.34314 16.6045C8.34314 14.341 9.24234 12.1701 10.8429 10.5695V10.5695ZM27.3056 9.34081C27.502 9.15554 27.6592 8.93276 27.7679 8.68564C27.8767 8.43853 27.9347 8.1721 27.9387 7.90214C27.9426 7.63219 27.8923 7.36418 27.7908 7.114C27.6893 6.86382 27.5387 6.63655 27.3478 6.44564C27.1569 6.25473 26.9296 6.10406 26.6794 6.00257C26.4292 5.90107 26.1612 5.8508 25.8913 5.85473C25.6213 5.85867 25.3549 5.91673 25.1078 6.02548C24.8606 6.13423 24.6379 6.29145 24.4526 6.48784C24.0923 6.86979 23.895 7.37713 23.9027 7.90214C23.9103 8.42716 24.1223 8.92853 24.4936 9.29981C24.8649 9.6711 25.3662 9.88306 25.8913 9.89072C26.4163 9.89837 26.9236 9.70111 27.3056 9.34081V9.34081Z" fill="white" />
</svg>
