<svg width="145" height="126" viewBox="0 0 145 126" fill="none" xmlns="http://www.w3.org/2000/svg">
<g clip-path="url(#clip0_695_277)">
<path d="M13.6098 74.3027H5.37036V88.7218H7.57736V82.6158H13.757C15.0812 82.6158 16.1111 82.2479 16.9203 81.4387C17.7296 80.6295 18.0974 79.5995 18.0974 78.3489C18.0974 77.0983 17.656 76.1419 16.8468 75.4062C16.1111 74.6706 15.0076 74.3027 13.6098 74.3027ZM15.3019 80.0409C14.934 80.4088 14.2719 80.5559 13.4627 80.5559H7.57736V76.5097H13.5363C14.2719 76.5097 14.8605 76.6569 15.2283 77.0247C15.5961 77.3925 15.8168 77.9075 15.8168 78.5696C15.8904 79.1581 15.6697 79.6731 15.3019 80.0409Z" fill="white"/>
<path d="M26.8519 74.0083C24.7184 74.0083 22.9528 74.744 21.5551 76.1417C20.1573 77.5395 19.4216 79.3787 19.4216 81.5857C19.4216 83.7191 20.1573 85.5583 21.5551 86.956C22.9528 88.3538 24.7184 89.0895 26.9254 89.0895C29.0589 89.0895 30.898 88.3538 32.2958 86.956C33.6936 85.5583 34.4292 83.7191 34.4292 81.5857C34.4292 79.4522 33.6936 77.6131 32.2958 76.2153C30.8245 74.744 28.9853 74.0083 26.8519 74.0083ZM32.0015 81.5857C32.0015 83.1306 31.4866 84.4548 30.5302 85.4847C29.5738 86.5146 28.3232 87.0296 26.8519 87.0296C25.3805 87.0296 24.1299 86.5146 23.1735 85.4847C22.2172 84.4548 21.7022 83.2041 21.7022 81.5857C21.7022 80.0408 22.2172 78.7166 23.1735 77.6866C24.1299 76.6567 25.3805 76.1417 26.8519 76.1417C28.3232 76.1417 29.5738 76.6567 30.5302 77.6866C31.5601 78.7166 32.0015 80.0408 32.0015 81.5857Z" fill="white"/>
<path d="M48.1862 86.5884H39.1375V74.3027H36.8569V88.7218H48.1862V86.5884Z" fill="white"/>
<path d="M52.0852 74.229H49.8046V88.7216H52.0852V74.229Z" fill="white"/>
<path d="M57.9706 78.7903L66.5779 88.7218H67.8285V74.3027H65.6215V84.3078L57.0142 74.3027H55.69V88.7218H57.9706V78.7903Z" fill="white"/>
<path d="M76.2887 74.3027L69.2263 88.7218H71.654L73.4932 84.9699H80.8499L82.7626 88.7218H85.1903L78.0543 74.3027H76.2887ZM79.8199 82.8365H74.5231L77.1715 77.5397L79.8199 82.8365Z" fill="white"/>
<path d="M49.9518 101.228H42.3008V95.7842H40.0203V110.203H42.3008V103.362H49.9518V110.203H52.2323V95.7842H49.9518V101.228Z" fill="white"/>
<path d="M65.8422 105.716L57.1613 95.7842H55.9107V110.203H58.1913V100.198L66.7986 110.203H68.0492V95.7842H65.8422V105.716Z" fill="white"/>
<path d="M73.9345 103.582H79.5256V101.449H73.9345V97.844H83.1304V95.7842H71.7275V110.203H83.7189V108.07H73.9345V103.582Z" fill="white"/>
<path d="M91.9584 95.7842H85.7788V110.203H91.9584C94.239 110.203 96.0781 109.541 97.4759 108.217C98.8737 106.893 99.5358 105.127 99.5358 102.994C99.5358 100.86 98.8001 99.0947 97.4759 97.7705C96.0781 96.4463 94.239 95.7842 91.9584 95.7842ZM97.2552 102.994C97.2552 104.539 96.8138 105.789 95.8575 106.672C94.9011 107.555 93.6504 108.07 92.032 108.07H88.0594V97.844H92.032C93.6504 97.844 94.9011 98.2854 95.8575 99.2418C96.7403 100.198 97.2552 101.449 97.2552 102.994Z" fill="white"/>
<path d="M100.713 95.7842V97.844H109.026L99.6094 110.203H112.851V108.07H104.023L113.219 95.7842H100.713Z" fill="white"/>
<path d="M128.08 95.7104H124.99L117.412 102.331V95.7104H115.132V110.203H117.412V105.053L120.429 102.479L126.02 110.203H128.742L122.121 101.007L128.08 95.7104Z" fill="white"/>
<path d="M137.864 95.7842H136.098L129.036 110.203H131.464L133.303 106.451H140.66L142.572 110.203H145L137.864 95.7842ZM139.63 104.318H134.333L136.981 99.0211L139.63 104.318Z" fill="white"/>
<path d="M20.5251 125.726C26.7047 121.606 26.7047 119.546 28.7646 117.486C26.4105 121.164 20.5251 123.666 14.3455 119.546C29.721 116.677 32.5901 102.994 34.135 92.8413C34.9442 105.127 37.0041 123.666 20.5251 125.726Z" fill="white"/>
<path d="M72.7575 52.2324C69.0792 51.6439 65.4744 50.9818 61.5754 48.6277C72.5368 47.892 81.7326 45.17 87.3973 34.7971C83.2775 36.2685 79.5256 36.5627 74.8909 35.3121C92.1056 28.9854 95.6368 15.7433 94.5333 7.29747e-05C94.0183 -0.14706 93.8712 0.147206 93.7976 0.441473C89.9721 7.87171 84.0132 13.2421 76.8772 17.4354C70.4034 21.1873 63.7088 24.6449 57.2349 28.4704C47.8184 33.9879 40.4617 42.5952 37.3719 53.1152C35.2385 60.4719 34.9442 69.8149 34.9442 69.8149C34.9442 69.8149 37.8133 60.9133 58.3384 55.8372C63.1938 54.7337 68.1228 54.0716 72.7575 52.2324Z" fill="white"/>
<path d="M12.5063 46.7887C15.8168 48.4807 20.2308 51.2027 24.7184 55.5431C29.9417 60.6192 32.9579 65.916 34.6499 69.4473C34.5028 65.1804 34.3557 61.2078 34.8706 57.2352C35.4592 52.8947 36.4891 48.8486 38.7697 45.0967C39.0639 44.6553 39.5053 43.9932 39.4318 43.5518C38.4018 40.0206 37.3719 36.3422 34.5028 33.7674C33.1786 32.5903 31.7073 32.9582 30.4566 34.1352C28.8382 35.6066 27.8818 37.5193 27.0726 39.5792C29.0589 40.3148 30.898 40.9769 31.5601 43.1839C31.928 44.361 32.4429 45.7588 31.1187 46.4944C29.7945 47.2301 28.9853 45.9059 28.3232 45.0231C22.7321 37.4457 14.7869 33.841 5.66464 32.5168C4.26687 32.3696 2.8691 32.2961 1.47133 32.1489C1.25063 32.1489 0.956367 32.1489 0 32.2225C1.9863 32.9582 4.414 33.9881 6.91527 35.6066C8.31304 36.4894 9.49011 37.4457 10.52 38.3285C10.52 38.3285 8.16591 38.6228 6.62101 39.0642C8.97514 40.3148 11.55 41.8597 14.1984 43.9932C15.7433 45.1702 17.0675 46.3473 18.3181 47.5244C18.3181 47.5244 14.6398 46.9358 12.5063 46.7887Z" fill="white"/>
<path d="M37.519 18.0239C36.1948 23.6886 29.9416 26.337 28.8381 32.2223C33.3257 31.928 36.5626 26.7784 37.519 18.0239Z" fill="white"/>
</g>
<defs>
<clipPath id="clip0_695_277">
<rect width="145" height="125.726" fill="white"/>
</clipPath>
</defs>
</svg>
