<svg width="100" height="87" viewBox="0 0 100 87" fill="none" xmlns="http://www.w3.org/2000/svg">
<g clip-path="url(#clip0_695_234)">
<path d="M9.38607 51.2429H3.70367V61.1871H5.22574V56.9761H9.48754C10.4008 56.9761 11.1111 56.7224 11.6692 56.1643C12.2273 55.6062 12.4809 54.8959 12.4809 54.0334C12.4809 53.1709 12.1765 52.5113 11.6184 52.004C11.1111 51.4966 10.35 51.2429 9.38607 51.2429ZM10.553 55.2003C10.2993 55.454 9.84269 55.5555 9.2846 55.5555H5.22574V52.765H9.33533C9.84269 52.765 10.2486 52.8665 10.5023 53.1201C10.7559 53.3738 10.9081 53.729 10.9081 54.1856C10.9589 54.5915 10.8067 54.9466 10.553 55.2003Z" fill="white"/>
<path d="M18.5185 51.04C17.0471 51.04 15.8295 51.5474 14.8655 52.5114C13.9015 53.4754 13.3942 54.7437 13.3942 56.2658C13.3942 57.7371 13.9015 59.0055 14.8655 59.9695C15.8295 60.9335 17.0471 61.4409 18.5692 61.4409C20.0405 61.4409 21.3089 60.9335 22.2729 59.9695C23.2369 59.0055 23.7442 57.7371 23.7442 56.2658C23.7442 54.7945 23.2369 53.5261 22.2729 52.5621C21.2582 51.5474 19.9898 51.04 18.5185 51.04ZM22.07 56.2658C22.07 57.3313 21.7148 58.2445 21.0553 58.9548C20.3957 59.6651 19.5332 60.0203 18.5185 60.0203C17.5038 60.0203 16.6412 59.6651 15.9817 58.9548C15.3221 58.2445 14.967 57.382 14.967 56.2658C14.967 55.2004 15.3221 54.2871 15.9817 53.5768C16.6412 52.8665 17.5038 52.5114 18.5185 52.5114C19.5332 52.5114 20.3957 52.8665 21.0553 53.5768C21.7655 54.2871 22.07 55.2004 22.07 56.2658Z" fill="white"/>
<path d="M33.2318 59.7158H26.9913V51.2429H25.4185V61.1871H33.2318V59.7158Z" fill="white"/>
<path d="M35.9208 51.1921H34.348V61.1871H35.9208V51.1921Z" fill="white"/>
<path d="M39.9797 54.3378L45.9157 61.1871H46.7782V51.2429H45.2562V58.143L39.3201 51.2429H38.4069V61.1871H39.9797V54.3378Z" fill="white"/>
<path d="M52.6129 51.2429L47.7422 61.1871H49.4165L50.6849 58.5996H55.7585L57.0776 61.1871H58.7519L53.8305 51.2429H52.6129ZM55.0482 57.1283H51.3952L53.2217 53.4753L55.0482 57.1283Z" fill="white"/>
<path d="M34.4495 69.8123H29.173V66.0579H27.6002V76.0021H29.173V71.2836H34.4495V76.0021H36.0223V66.0579H34.4495V69.8123Z" fill="white"/>
<path d="M45.4084 72.9072L39.4216 66.0579H38.5591V76.0021H40.1319V69.102L46.068 76.0021H46.9305V66.0579H45.4084V72.9072Z" fill="white"/>
<path d="M50.9893 71.4358H54.8452V69.9645H50.9893V67.4785H57.3313V66.0579H49.4672V76.0021H57.7371V74.5307H50.9893V71.4358Z" fill="white"/>
<path d="M63.4196 66.0579H59.1578V76.0021H63.4196C64.9924 76.0021 66.2608 75.5454 67.2247 74.6322C68.1887 73.719 68.6453 72.5013 68.6453 71.03C68.6453 69.5586 68.138 68.341 67.2247 67.4277C66.2608 66.5145 64.9924 66.0579 63.4196 66.0579ZM67.0725 71.03C67.0725 72.0954 66.7681 72.9579 66.1086 73.5667C65.449 74.1756 64.5865 74.5307 63.4703 74.5307H60.7306V67.4785H63.4703C64.5865 67.4785 65.449 67.7829 66.1086 68.4424C66.7174 69.102 67.0725 69.9645 67.0725 71.03Z" fill="white"/>
<path d="M69.4571 66.0579V67.4785H75.1902L68.696 76.0021H77.8285V74.5307H71.7402L78.0821 66.0579H69.4571Z" fill="white"/>
<path d="M88.3308 66.0071H86.1999L80.9741 70.5733V66.0071H79.4013V76.002H80.9741V72.4505L83.0543 70.6748L86.9102 76.002H88.7874L84.2212 69.66L88.3308 66.0071Z" fill="white"/>
<path d="M95.0786 66.0579H93.8609L88.9903 76.0021H90.6646L91.933 73.4145H97.0065L98.3257 76.0021H99.9999L95.0786 66.0579ZM96.2962 71.9432H92.6433L94.4697 68.2902L96.2962 71.9432Z" fill="white"/>
<path d="M14.1552 86.7072C18.417 83.866 18.417 82.4454 19.8376 81.0248C18.2141 83.5615 14.1552 85.2866 9.89343 82.4454C20.4972 80.4667 22.4759 71.0298 23.5413 64.0283C24.0994 72.5012 25.52 85.2866 14.1552 86.7072Z" fill="white"/>
<path d="M50.1776 36.0222C47.6408 35.6163 45.1547 35.1597 42.4657 33.5362C50.0253 33.0288 56.3673 31.1516 60.274 23.9979C57.4328 25.0126 54.8452 25.2155 51.6489 24.353C63.521 19.9897 65.9563 10.8573 65.1953 -0.000109624C64.8402 -0.101581 64.7387 0.101362 64.688 0.304304C62.0497 5.42861 57.9401 9.13231 53.0188 12.0242C48.554 14.6118 43.9371 16.9963 39.4723 19.6346C32.9782 23.4398 27.9046 29.3758 25.7737 36.631C24.3024 41.7046 24.0994 48.148 24.0994 48.148C24.0994 48.148 26.0781 42.009 40.2334 38.5083C43.5819 37.7472 46.9812 37.2906 50.1776 36.0222Z" fill="white"/>
<path d="M8.62506 32.2678C10.9082 33.4347 13.9523 35.3119 17.0472 38.3053C20.6494 41.8061 22.7296 45.4591 23.8965 47.8944C23.795 44.9517 23.6936 42.212 24.0487 39.4722C24.4546 36.4788 25.1649 33.6884 26.7377 31.1009C26.9406 30.7964 27.2451 30.3398 27.1943 30.0354C26.484 27.6001 25.7737 25.0633 23.795 23.2876C22.8818 22.4758 21.8671 22.7295 21.0046 23.5412C19.8884 24.556 19.2288 25.8751 18.6707 27.2957C20.0406 27.803 21.309 28.2597 21.7656 29.7817C22.0193 30.5935 22.3744 31.5575 21.4612 32.0648C20.5479 32.5722 19.9899 31.659 19.5332 31.0501C15.6773 25.8244 10.1979 23.3383 3.90665 22.4251C2.94267 22.3236 1.97869 22.2729 1.01471 22.1714C0.862506 22.1714 0.659564 22.1714 0 22.2221C1.36986 22.7295 3.04414 23.4398 4.76915 24.556C5.73313 25.1648 6.5449 25.8244 7.2552 26.4332C7.2552 26.4332 5.63166 26.6361 4.56621 26.9405C6.18975 27.803 7.9655 28.8685 9.79198 30.3398C10.8574 31.1516 11.7707 31.9634 12.6332 32.7751C12.6332 32.7751 10.0964 32.3693 8.62506 32.2678Z" fill="white"/>
<path d="M25.8752 12.4302C24.9619 16.3368 20.6494 18.1633 19.8884 22.2222C22.9832 22.0192 25.2156 18.4677 25.8752 12.4302Z" fill="white"/>
</g>
<defs>
<clipPath id="clip0_695_234">
<rect width="100" height="86.7072" fill="white"/>
</clipPath>
</defs>
</svg>
