<svg width="80" height="70" viewBox="0 0 80 70" fill="none" xmlns="http://www.w3.org/2000/svg">
<path d="M7.50887 40.9946H2.96295V48.95H4.18061V45.5811H7.59004C8.32064 45.5811 8.88888 45.3782 9.33535 44.9317C9.78182 44.4852 9.98477 43.917 9.98477 43.227C9.98477 42.537 9.74124 42.0093 9.29476 41.6035C8.88888 41.1976 8.28005 40.9946 7.50887 40.9946ZM8.4424 44.1605C8.23946 44.3635 7.87416 44.4447 7.42769 44.4447H4.18061V42.2123H7.46828C7.87416 42.2123 8.19887 42.2935 8.40181 42.4964C8.60476 42.6993 8.72652 42.9835 8.72652 43.3488C8.76711 43.6735 8.64535 43.9576 8.4424 44.1605Z" fill="white"/>
<path d="M14.8148 40.8323C13.6377 40.8323 12.6636 41.2382 11.8924 42.0093C11.1212 42.7805 10.7153 43.7952 10.7153 45.0129C10.7153 46.19 11.1212 47.2047 11.8924 47.9759C12.6636 48.747 13.6377 49.1529 14.8554 49.1529C16.0324 49.1529 17.0471 48.747 17.8183 47.9759C18.5895 47.2047 18.9954 46.19 18.9954 45.0129C18.9954 43.8358 18.5895 42.8211 17.8183 42.0499C17.0066 41.2382 15.9918 40.8323 14.8148 40.8323ZM17.656 45.0129C17.656 45.8653 17.3719 46.5958 16.8442 47.1641C16.3165 47.7323 15.6265 48.0164 14.8148 48.0164C14.003 48.0164 13.313 47.7323 12.7853 47.1641C12.2577 46.5958 11.9736 45.9058 11.9736 45.0129C11.9736 44.1605 12.2577 43.4299 12.7853 42.8617C13.313 42.2935 14.003 42.0093 14.8148 42.0093C15.6265 42.0093 16.3165 42.2935 16.8442 42.8617C17.4124 43.4299 17.656 44.1605 17.656 45.0129Z" fill="white"/>
<path d="M26.5855 47.7729H21.5931V40.9946H20.3348V48.95H26.5855V47.7729Z" fill="white"/>
<path d="M28.7366 40.9541H27.4784V48.95H28.7366V40.9541Z" fill="white"/>
<path d="M31.9838 43.4705L36.7326 48.95H37.4226V40.9946H36.205V46.5147L31.4561 40.9946H30.7255V48.95H31.9838V43.4705Z" fill="white"/>
<path d="M42.0903 40.9946L38.1938 48.95H39.5332L40.5479 46.88H44.6068L45.6621 48.95H47.0015L43.0644 40.9946H42.0903ZM44.0385 45.7029H41.1162L42.5773 42.7805L44.0385 45.7029Z" fill="white"/>
<path d="M27.5596 55.85H23.3384V52.8464H22.0801V60.8018H23.3384V57.0271H27.5596V60.8018H28.8178V52.8464H27.5596V55.85Z" fill="white"/>
<path d="M36.3267 58.3259L31.5373 52.8464H30.8473V60.8018H32.1055V55.2817L36.8544 60.8018H37.5444V52.8464H36.3267V58.3259Z" fill="white"/>
<path d="M40.7914 57.1488H43.8762V55.9718H40.7914V53.9829H45.865V52.8464H39.5738V60.8018H46.1897V59.6247H40.7914V57.1488Z" fill="white"/>
<path d="M50.7357 52.8464H47.3262V60.8018H50.7357C51.9939 60.8018 53.0086 60.4365 53.7798 59.7059C54.551 58.9753 54.9163 58.0012 54.9163 56.8241C54.9163 55.647 54.5104 54.6729 53.7798 53.9423C53.0086 53.2117 51.9939 52.8464 50.7357 52.8464ZM53.658 56.8241C53.658 57.6765 53.4145 58.3665 52.8869 58.8535C52.3592 59.3406 51.6692 59.6247 50.7763 59.6247H48.5845V53.9829H50.7763C51.6692 53.9829 52.3592 54.2264 52.8869 54.7541C53.3739 55.2817 53.658 55.9718 53.658 56.8241Z" fill="white"/>
<path d="M55.5657 52.8464V53.9829H60.1522L54.9568 60.8018H62.2628V59.6247H57.3922L62.4657 52.8464H55.5657Z" fill="white"/>
<path d="M70.6646 52.8059H68.9599L64.7793 56.4589V52.8059H63.5211V60.8018H64.7793V57.9607L66.4434 56.5401L69.5282 60.8018H71.0299L67.377 55.7283L70.6646 52.8059Z" fill="white"/>
<path d="M76.0629 52.8464H75.0888L71.1923 60.8018H72.5317L73.5464 58.7318H77.6052L78.6606 60.8018H80L76.0629 52.8464ZM77.037 57.5547H74.1146L75.5758 54.6323L77.037 57.5547Z" fill="white"/>
<path d="M11.3242 69.366C14.7336 67.093 14.7336 65.9565 15.8701 64.8201C14.5713 66.8495 11.3242 68.2295 7.91473 65.9565C16.3977 64.3736 17.9807 56.8241 18.833 51.2229C19.2795 58.0012 20.416 68.2295 11.3242 69.366Z" fill="white"/>
<path d="M40.142 28.818C38.1126 28.4933 36.1238 28.128 33.9726 26.8291C40.0203 26.4232 45.0938 24.9215 48.2192 19.1985C45.9462 20.0103 43.8762 20.1726 41.3191 19.4826C50.8168 15.992 52.7651 8.68605 52.1562 0.000107614C51.8721 -0.0810695 51.791 0.0812847 51.7504 0.243639C49.6398 4.34308 46.3521 7.30604 42.415 9.61959C38.8432 11.6896 35.1497 13.5973 31.5779 15.7079C26.3825 18.752 22.3237 23.5009 20.619 29.305C19.4419 33.3639 19.2795 38.5186 19.2795 38.5186C19.2795 38.5186 20.8625 33.6074 32.1867 30.8068C34.8655 30.198 37.585 29.8327 40.142 28.818Z" fill="white"/>
<path d="M6.90005 25.8144C8.72653 26.748 11.1618 28.2497 13.6377 30.6445C16.5195 33.4451 18.1837 36.3674 19.1172 38.3157C19.036 35.9616 18.9548 33.7698 19.239 31.578C19.5637 29.1833 20.1319 26.9509 21.3902 24.8809C21.5525 24.6374 21.796 24.2721 21.7555 24.0285C21.1872 22.0803 20.619 20.0509 19.036 18.6303C18.3054 17.9808 17.4937 18.1838 16.8037 18.8332C15.9107 19.645 15.3831 20.7003 14.9366 21.8367C16.0325 22.2426 17.0472 22.6079 17.4125 23.8256C17.6154 24.475 17.8995 25.2462 17.1689 25.6521C16.4384 26.058 15.9919 25.3274 15.6266 24.8403C12.5419 20.6597 8.15829 18.6708 3.12532 17.9402C2.35413 17.8591 1.58295 17.8185 0.811771 17.7373C0.690005 17.7373 0.527651 17.7373 0 17.7779C1.09589 18.1838 2.43531 18.752 3.81532 19.645C4.5865 20.132 5.23592 20.6597 5.80416 21.1467C5.80416 21.1467 4.50533 21.3091 3.65297 21.5526C4.9518 22.2426 6.3724 23.095 7.83359 24.2721C8.68595 24.9215 9.41654 25.5709 10.1065 26.2203C10.1065 26.2203 8.07712 25.8956 6.90005 25.8144Z" fill="white"/>
<path d="M20.7002 9.94434C19.9696 13.0697 16.5195 14.5308 15.9107 17.7779C18.3866 17.6156 20.1725 14.7744 20.7002 9.94434Z" fill="white"/>
</svg>
