<svg width="145" height="126" viewBox="0 0 145 126" fill="none" xmlns="http://www.w3.org/2000/svg">
<path d="M13.6098 74.3025H5.37036V88.7216H7.57736V82.6155H13.757C15.0812 82.6155 16.1111 82.2477 16.9203 81.4385C17.7296 80.6292 18.0974 79.5993 18.0974 78.3487C18.0974 77.098 17.656 76.1417 16.8468 75.406C16.1111 74.6703 15.0076 74.3025 13.6098 74.3025ZM15.3019 80.0407C14.934 80.4085 14.2719 80.5557 13.4627 80.5557H7.57736V76.5095H13.5363C14.2719 76.5095 14.8605 76.6566 15.2283 77.0245C15.5961 77.3923 15.8168 77.9073 15.8168 78.5694C15.8904 79.1579 15.6697 79.6729 15.3019 80.0407Z" fill="white"/>
<path d="M26.8518 74.0083C24.7184 74.0083 22.9528 74.744 21.555 76.1417C20.1573 77.5395 19.4216 79.3787 19.4216 81.5857C19.4216 83.7191 20.1573 85.5583 21.555 86.956C22.9528 88.3538 24.7184 89.0895 26.9254 89.0895C29.0588 89.0895 30.898 88.3538 32.2958 86.956C33.6935 85.5583 34.4292 83.7191 34.4292 81.5857C34.4292 79.4522 33.6935 77.6131 32.2958 76.2153C30.8244 74.744 28.9853 74.0083 26.8518 74.0083ZM32.0015 81.5857C32.0015 83.1306 31.4865 84.4548 30.5302 85.4847C29.5738 86.5146 28.3232 87.0296 26.8518 87.0296C25.3805 87.0296 24.1299 86.5146 23.1735 85.4847C22.2171 84.4548 21.7022 83.2041 21.7022 81.5857C21.7022 80.0408 22.2171 78.7166 23.1735 77.6866C24.1299 76.6567 25.3805 76.1417 26.8518 76.1417C28.3232 76.1417 29.5738 76.6567 30.5302 77.6866C31.5601 78.7166 32.0015 80.0408 32.0015 81.5857Z" fill="white"/>
<path d="M48.1862 86.5881H39.1375V74.3025H36.8569V88.7216H48.1862V86.5881Z" fill="white"/>
<path d="M52.0852 74.229H49.8047V88.7216H52.0852V74.229Z" fill="white"/>
<path d="M57.9706 78.7901L66.5779 88.7216H67.8285V74.3025H65.6215V84.3076L57.0142 74.3025H55.69V88.7216H57.9706V78.7901Z" fill="white"/>
<path d="M76.2887 74.3025L69.2263 88.7216H71.654L73.4931 84.9697H80.8498L82.7625 88.7216H85.1902L78.0543 74.3025H76.2887ZM79.8199 82.8362H74.5231L77.1715 77.5394L79.8199 82.8362Z" fill="white"/>
<path d="M49.9518 101.228H42.3009V95.7839H40.0203V110.203H42.3009V103.361H49.9518V110.203H52.2324V95.7839H49.9518V101.228Z" fill="white"/>
<path d="M65.8422 105.715L57.1613 95.7839H55.9107V110.203H58.1913V100.198L66.7986 110.203H68.0492V95.7839H65.8422V105.715Z" fill="white"/>
<path d="M73.9345 103.582H79.5256V101.449H73.9345V97.8438H83.1304V95.7839H71.7275V110.203H83.7189V108.07H73.9345V103.582Z" fill="white"/>
<path d="M91.9584 95.7839H85.7788V110.203H91.9584C94.239 110.203 96.0781 109.541 97.4759 108.217C98.8737 106.893 99.5358 105.127 99.5358 102.993C99.5358 100.86 98.8001 99.0944 97.4759 97.7702C96.0781 96.446 94.239 95.7839 91.9584 95.7839ZM97.2552 102.993C97.2552 104.538 96.8138 105.789 95.8575 106.672C94.9011 107.555 93.6504 108.07 92.032 108.07H88.0594V97.8438H92.032C93.6504 97.8438 94.9011 98.2852 95.8575 99.2416C96.7403 100.198 97.2552 101.449 97.2552 102.993Z" fill="white"/>
<path d="M100.713 95.7839V97.8438H109.026L99.6093 110.203H112.851V108.07H104.023L113.219 95.7839H100.713Z" fill="white"/>
<path d="M128.08 95.7104H124.99L117.412 102.331V95.7104H115.132V110.203H117.412V105.053L120.429 102.479L126.02 110.203H128.742L122.121 101.007L128.08 95.7104Z" fill="white"/>
<path d="M137.864 95.7839H136.098L129.036 110.203H131.464L133.303 106.451H140.66L142.572 110.203H145L137.864 95.7839ZM139.63 104.318H134.333L136.981 99.0209L139.63 104.318Z" fill="white"/>
<path d="M20.5251 125.726C26.7047 121.606 26.7047 119.546 28.7646 117.486C26.4105 121.164 20.5251 123.666 14.3455 119.546C29.721 116.677 32.5901 102.994 34.135 92.8413C34.9442 105.127 37.0041 123.666 20.5251 125.726Z" fill="white"/>
<path d="M72.7575 52.2324C69.0791 51.6439 65.4744 50.9818 61.5753 48.6277C72.5368 47.892 81.7326 45.17 87.3973 34.7971C83.2775 36.2685 79.5256 36.5627 74.8909 35.3121C92.1055 28.9854 95.6367 15.7433 94.5332 7.29747e-05C94.0183 -0.14706 93.8711 0.147206 93.7976 0.441473C89.9721 7.87171 84.0132 13.2421 76.8772 17.4354C70.4033 21.1873 63.7088 24.6449 57.2349 28.4704C47.8184 33.9879 40.4617 42.5952 37.3719 53.1152C35.2384 60.4719 34.9442 69.8149 34.9442 69.8149C34.9442 69.8149 37.8133 60.9133 58.3384 55.8372C63.1938 54.7337 68.1228 54.0716 72.7575 52.2324Z" fill="white"/>
<path d="M12.5063 46.7885C15.8168 48.4805 20.2308 51.2025 24.7184 55.5429C29.9417 60.619 32.9579 65.9158 34.6499 69.447C34.5028 65.1801 34.3557 61.2075 34.8706 57.2349C35.4592 52.8945 36.4891 48.8483 38.7697 45.0964C39.0639 44.655 39.5053 43.9929 39.4318 43.5515C38.4018 40.0203 37.3719 36.342 34.5028 33.7671C33.1786 32.5901 31.7073 32.9579 30.4566 34.135C28.8382 35.6063 27.8818 37.5191 27.0726 39.5789C29.0589 40.3146 30.898 40.9767 31.5601 43.1837C31.928 44.3608 32.4429 45.7585 31.1187 46.4942C29.7945 47.2299 28.9853 45.9057 28.3232 45.0229C22.7321 37.4455 14.7869 33.8407 5.66464 32.5165C4.26687 32.3694 2.8691 32.2958 1.47133 32.1487C1.25063 32.1487 0.956367 32.1487 0 32.2222C1.9863 32.9579 4.414 33.9879 6.91527 35.6063C8.31304 36.4891 9.49011 37.4455 10.52 38.3283C10.52 38.3283 8.16591 38.6226 6.62101 39.064C8.97514 40.3146 11.55 41.8595 14.1984 43.9929C15.7433 45.17 17.0675 46.3471 18.3181 47.5241C18.3181 47.5241 14.6398 46.9356 12.5063 46.7885Z" fill="white"/>
<path d="M37.519 18.0239C36.1948 23.6886 29.9417 26.337 28.8382 32.2223C33.3257 31.928 36.5627 26.7784 37.519 18.0239Z" fill="white"/>
</svg>
