<svg width="95" height="60" viewBox="0 0 95 60" fill="none" xmlns="http://www.w3.org/2000/svg">
<path d="M47.3928 49.883C52.5088 47.9557 53.004 36.0078 48.4988 23.1966C43.9937 10.3854 36.1942 1.56222 31.0782 3.48949C25.9622 5.41677 25.467 17.3647 29.9721 30.1759C34.4773 42.9871 42.2768 51.8103 47.3928 49.883Z" stroke="white" stroke-width="2" stroke-linecap="round" stroke-linejoin="round"/>
<path d="M47.3977 49.8748C49.6986 44.7678 41.8861 35.957 29.948 30.1952C18.0099 24.4335 6.46699 23.9028 4.16611 29.0098C1.86523 34.1168 9.67772 42.9276 21.6158 48.6894C33.5539 54.4511 45.0968 54.9818 47.3977 49.8748Z" stroke="white" stroke-width="2" stroke-linecap="round" stroke-linejoin="round"/>
<path d="M64.8055 30.1799C69.3106 17.3687 68.8154 5.42075 63.6994 3.49348C58.5834 1.56621 50.7839 10.3894 46.2788 23.2006C41.7736 36.0118 42.2688 47.9597 47.3848 49.887C52.5008 51.8142 60.3003 42.9911 64.8055 30.1799Z" stroke="white" stroke-width="2" stroke-linecap="round" stroke-linejoin="round"/>
<path d="M73.1674 48.6782C85.1054 42.9164 92.9179 34.1056 90.6171 28.9986C88.3162 23.8916 76.7732 24.4223 64.8352 30.1841C52.8971 35.9458 45.0846 44.7566 47.3855 49.8636C49.6863 54.9706 61.2293 54.4399 73.1674 48.6782Z" stroke="white" stroke-width="2" stroke-linecap="round" stroke-linejoin="round"/>
</svg>
