<svg width="61" height="61" viewBox="0 0 61 61" fill="none" xmlns="http://www.w3.org/2000/svg">
<path d="M56.8108 1H4.18919C3.34336 1 2.53218 1.336 1.93409 1.93409C1.336 2.53218 1 3.34336 1 4.18919V56.8108C1 57.6566 1.336 58.4678 1.93409 59.0659C2.53218 59.664 3.34336 60 4.18919 60H56.8108C57.6566 60 58.4678 59.664 59.0659 59.0659C59.664 58.4678 60 57.6566 60 56.8108V4.18919C60 3.34336 59.664 2.53218 59.0659 1.93409C58.4678 1.336 57.6566 1 56.8108 1V1Z" stroke="white" stroke-width="2" stroke-linecap="round" stroke-linejoin="round"/>
<path d="M48.0404 36.0811C51.1228 36.0811 53.6215 33.5824 53.6215 30.5C53.6215 27.4177 51.1228 24.9189 48.0404 24.9189C44.9581 24.9189 42.4594 27.4177 42.4594 30.5C42.4594 33.5824 44.9581 36.0811 48.0404 36.0811Z" stroke="white" stroke-width="2" stroke-linecap="round" stroke-linejoin="round"/>
<path d="M7.3783 30.5H13.7567L20.1351 14.5541L29.7026 46.446L36.081 30.5H42.4594" stroke="white" stroke-width="2" stroke-linecap="round" stroke-linejoin="round"/>
</svg>
