<svg width="34" height="34" viewBox="0 0 34 34" fill="none" xmlns="http://www.w3.org/2000/svg">
<path fill-rule="evenodd" clip-rule="evenodd" d="M34 16.9652C34 26.3343 26.4039 33.9305 17.0348 33.9305C7.66576 33.9305 0.0695801 26.3343 0.0695801 16.9652C0.0695801 7.59618 7.66576 0 17.0348 0C26.4039 0 34 7.59618 34 16.9652ZM17.6427 12.5246C15.9929 13.2103 12.6945 14.6311 7.74917 16.7857C6.94615 17.1052 6.52485 17.4176 6.48668 17.723C6.42164 18.2404 7.06915 18.444 7.94851 18.7197C8.06868 18.7579 8.1931 18.7961 8.32034 18.8385C9.18698 19.1198 10.3519 19.4492 10.957 19.4619C11.507 19.4733 12.1205 19.2471 12.7977 18.7833C17.4179 15.6631 19.803 14.0868 19.9528 14.0529C20.0589 14.0288 20.2059 13.9977 20.3049 14.0868C20.4038 14.1744 20.3939 14.3413 20.384 14.3865C20.319 14.6594 17.7827 17.019 16.4679 18.2404C16.0579 18.6208 15.7681 18.8908 15.7087 18.953C15.5758 19.0901 15.4401 19.2216 15.31 19.3474C14.5042 20.1222 13.9019 20.7046 15.3439 21.6547C16.0367 22.1113 16.5909 22.4888 17.1437 22.8649C17.7473 23.2763 18.3496 23.6863 19.13 24.1981C19.3279 24.3281 19.5174 24.4624 19.7026 24.5939C20.4052 25.0958 21.0372 25.5454 21.8176 25.4747C22.27 25.4323 22.7394 25.0067 22.9769 23.7358C23.5381 20.7301 24.6437 14.2211 24.8996 11.5378C24.9152 11.315 24.9057 11.0911 24.8713 10.8705C24.8508 10.6922 24.764 10.5282 24.6282 10.411C24.426 10.2456 24.1121 10.2102 23.9708 10.2131C23.3331 10.2244 22.3548 10.5651 17.6427 12.5246V12.5246Z" fill="white"/>
</svg>
