<svg width="35" height="32" viewBox="0 0 35 32" xmlns="http://www.w3.org/2000/svg">
<path d="M33.4144 0.604217C33.063 0.306487 32.6376 0.109524 32.1832 0.0342633C31.7289 -0.0409973 31.2626 0.00825681 30.834 0.176791L1.61073 11.654C1.09816 11.8493 0.66399 12.2076 0.375081 12.6739C0.0861717 13.1401 -0.0414597 13.6884 0.0118393 14.2344C0.0593906 14.7801 0.282566 15.2956 0.6479 15.7038C1.01323 16.1119 1.50103 16.3906 2.03815 16.4981L9.4627 17.9704V27.2471C9.46244 27.749 9.61126 28.2396 9.89029 28.6567C10.1693 29.0739 10.566 29.3987 11.0299 29.59C11.337 29.7136 11.6646 29.7781 11.9956 29.78C12.3283 29.7812 12.6578 29.716 12.965 29.5882C13.2722 29.4605 13.5507 29.2727 13.7845 29.036L17.9004 24.9358L24.1218 30.4132C24.5811 30.8183 25.1716 31.0433 25.784 31.0464C26.0533 31.052 26.3214 31.0091 26.5756 30.9198C26.9933 30.7876 27.3693 30.5487 27.6664 30.2266C27.9635 29.9045 28.1714 29.5105 28.2694 29.0835L34.2217 3.08962C34.3258 2.64109 34.3056 2.17268 34.1633 1.73476C34.0211 1.29684 33.7622 0.905985 33.4144 0.604217V0.604217ZM10.4284 15.58L2.54473 14.0127L24.6442 5.32173L10.4284 15.58ZM11.9956 27.2471V19.7434L15.9849 23.2578L11.9956 27.2471ZM25.7999 28.5136L12.7555 17.0364L31.5464 3.46955L25.7999 28.5136Z" fill="white" />
</svg>
