<svg width="31" height="30" viewBox="0 0 31 30" fill="none" xmlns="http://www.w3.org/2000/svg">
<path fill-rule="evenodd" clip-rule="evenodd" d="M30.375 15C30.375 23.2838 23.6588 30 15.375 30C7.09125 30 0.375 23.2838 0.375 15C0.375 6.71625 7.09125 0 15.375 0C23.6588 0 30.375 6.71625 30.375 15ZM15.9125 11.0738C14.4538 11.68 11.5375 12.9362 7.165 14.8413C6.455 15.1237 6.0825 15.4 6.04875 15.67C5.99125 16.1275 6.56375 16.3075 7.34125 16.5513C7.4475 16.585 7.5575 16.6187 7.67 16.6562C8.43625 16.905 9.46625 17.1962 10.0013 17.2075C10.4875 17.2175 11.03 17.0175 11.6287 16.6075C15.7137 13.8488 17.8225 12.455 17.955 12.425C18.0487 12.4037 18.1787 12.3762 18.2663 12.455C18.3538 12.5325 18.345 12.68 18.3363 12.72C18.2788 12.9612 16.0363 15.0475 14.8737 16.1275C14.5112 16.4638 14.255 16.7025 14.2025 16.7575C14.085 16.8787 13.965 16.995 13.85 17.1063C13.1375 17.7913 12.605 18.3062 13.88 19.1462C14.4925 19.55 14.9825 19.8838 15.4712 20.2163C16.005 20.58 16.5375 20.9425 17.2275 21.395C17.4025 21.51 17.57 21.6287 17.7337 21.745C18.355 22.1887 18.9137 22.5862 19.6038 22.5237C20.0037 22.4862 20.4187 22.11 20.6287 20.9862C21.125 18.3287 22.1025 12.5738 22.3288 10.2013C22.3425 10.0043 22.3341 9.80636 22.3037 9.61125C22.2856 9.45366 22.2088 9.30866 22.0888 9.205C21.91 9.05875 21.6325 9.0275 21.5075 9.03C20.9438 9.04 20.0788 9.34125 15.9125 11.0738Z" fill="white"/>
</svg>
