<svg width="36" height="35" viewBox="0 0 36 35" xmlns="http://www.w3.org/2000/svg">
<path d="M17.0914 0.00558118C14.2826 0.0394874 8.24405 0.50105 4.86655 3.59964C2.3542 6.08902 1.47701 9.76949 1.3742 14.3206C1.28889 18.8553 1.18608 27.3712 9.39467 29.69V33.2217C9.39467 33.2217 9.34327 34.6348 10.2773 34.9246C11.428 35.2889 12.0831 34.2017 13.1769 33.0335L15.2167 30.7268C20.8331 31.1939 25.1348 30.1176 25.6303 29.9579C26.77 29.5937 33.1892 28.7734 34.2381 20.2564C35.3144 11.4604 33.7142 5.91839 30.8256 3.41152H30.8081C29.9364 2.60871 26.4331 0.0558937 18.6062 0.0274562C18.6062 0.0274562 18.0255 -0.0119188 17.0914 0.00448743V0.00558118ZM17.1876 2.47855C17.985 2.47308 18.4695 2.50699 18.4695 2.50699C25.0944 2.52449 28.2564 4.51839 29.0023 5.18996C31.4348 7.27464 32.6883 12.2709 31.7706 19.6143C30.8989 26.7346 25.6926 27.1853 24.729 27.4926C24.3189 27.6239 20.5301 28.5579 15.757 28.2506C15.757 28.2506 12.2023 32.5403 11.0911 33.645C10.915 33.8385 10.7094 33.8954 10.5781 33.867C10.39 33.821 10.3331 33.5881 10.344 33.2687L10.378 27.4073C3.41623 25.4823 3.82639 18.2187 3.90076 14.4245C3.98608 10.6303 4.69811 7.52621 6.8178 5.42402C9.67139 2.84386 14.7989 2.49605 17.1855 2.47855H17.1876ZM17.7126 6.27167C17.6553 6.2711 17.5985 6.28187 17.5454 6.30336C17.4923 6.32485 17.4439 6.35665 17.4032 6.39691C17.3624 6.43717 17.33 6.48511 17.3078 6.53795C17.2857 6.59079 17.2742 6.6475 17.274 6.7048C17.274 6.9498 17.4731 7.14339 17.7126 7.14339C18.7971 7.12277 19.8749 7.31704 20.8839 7.71501C21.8929 8.11299 22.8132 8.70678 23.5915 9.46214C25.1808 11.0054 25.9551 13.0792 25.9847 15.7906C25.9847 16.0301 26.1783 16.2292 26.4233 16.2292V16.2117C26.5387 16.212 26.6496 16.1666 26.7318 16.0855C26.814 16.0043 26.8607 15.894 26.8619 15.7785C26.915 14.5023 26.708 13.2286 26.2535 12.0348C25.7991 10.8411 25.1066 9.75216 24.2183 8.83433C22.4869 7.1423 20.2928 6.27058 17.7126 6.27058V6.27167ZM11.9475 7.27464C11.6379 7.22941 11.3222 7.29155 11.0528 7.45074H11.0298C10.4045 7.81729 9.84115 8.28059 9.36076 8.82339C8.96155 9.28496 8.74498 9.75199 8.68811 10.2015C8.6542 10.4695 8.67717 10.7375 8.75701 10.9934L8.78545 11.0109C9.23498 12.3321 9.82233 13.6031 10.5398 14.7996C11.4641 16.4807 12.6015 18.0354 13.9239 19.4251L13.9633 19.482L14.0256 19.5279L14.065 19.5739L14.1109 19.6132C15.5057 20.9395 17.0641 22.0822 18.7484 23.0137C20.6734 24.0615 21.8415 24.557 22.5426 24.7626V24.7735C22.7483 24.8359 22.9353 24.8643 23.1234 24.8643C23.7209 24.8206 24.2866 24.578 24.7301 24.1753C25.2705 23.6948 25.7286 23.1291 26.0864 22.5007V22.4898C26.4222 21.8576 26.3084 21.2593 25.8239 20.8546C24.8535 20.0064 23.8042 19.2531 22.6903 18.6048C21.9444 18.2001 21.1864 18.4451 20.879 18.8553L20.2239 19.681C19.8881 20.0912 19.2778 20.0343 19.2778 20.0343L19.2603 20.0453C14.7092 18.8826 13.4951 14.2746 13.4951 14.2746C13.4951 14.2746 13.4383 13.6479 13.8594 13.3285L14.6797 12.6679C15.0723 12.3485 15.3458 11.5917 14.9247 10.8446C14.2809 9.72919 13.5292 8.67962 12.6803 7.71105C12.4947 7.48271 12.2344 7.32735 11.9453 7.27246L11.9475 7.27464ZM18.4695 8.57402C17.8887 8.57402 17.8887 9.45121 18.475 9.45121C19.1972 9.46292 19.91 9.61684 20.5726 9.90416C21.2353 10.1915 21.8348 10.6066 22.337 11.1257C22.7951 11.6311 23.1471 12.2232 23.3722 12.867C23.5973 13.5109 23.6908 14.1934 23.6473 14.874C23.6493 14.9892 23.6963 15.099 23.7783 15.18C23.8603 15.2609 23.9707 15.3066 24.0859 15.3071L24.1034 15.3301C24.2195 15.3293 24.3305 15.2828 24.4126 15.2007C24.4947 15.1186 24.5412 15.0076 24.542 14.8915C24.5814 13.1535 24.0411 11.6956 22.9812 10.5275C21.9159 9.35933 20.4295 8.70417 18.5319 8.57402H18.4695V8.57402ZM19.1881 10.9321C18.5898 10.9146 18.5669 11.8093 19.1597 11.8268C20.6012 11.9012 21.3012 12.6296 21.3931 14.1281C21.3951 14.2418 21.4416 14.3503 21.5225 14.4302C21.6035 14.5101 21.7125 14.5552 21.8262 14.5557H21.8437C21.9022 14.5532 21.9596 14.5391 22.0126 14.5142C22.0655 14.4892 22.113 14.454 22.1522 14.4105C22.1914 14.367 22.2216 14.3162 22.2409 14.2609C22.2602 14.2057 22.2684 14.1471 22.2648 14.0887C22.162 12.1353 21.0967 11.035 19.2056 10.9332H19.1881V10.9321Z" fill="white" />
</svg>
