<svg width="34" height="34" viewBox="0 0 34 34" xmlns="http://www.w3.org/2000/svg">
<path d="M28.641 4.82043C27.1209 3.28621 25.3106 2.06987 23.3156 1.24229C21.3207 0.414713 19.181 -0.00755228 17.0212 0.000102231C7.97119 0.000102231 0.595633 7.37359 0.587343 16.4257C0.587343 19.3249 1.34583 22.1454 2.77784 24.6426L0.454712 33.158L9.16695 30.8743C11.5771 32.1859 14.2773 32.8734 17.0212 32.8741H17.0295C26.0816 32.8741 33.4551 25.5006 33.4634 16.4402C33.4655 14.2809 33.0403 12.1425 32.2122 10.1482C31.3842 8.15398 30.1698 6.34327 28.6389 4.82043H28.641ZM17.0212 30.093C14.5738 30.0938 12.1713 29.4352 10.0664 28.1864L9.56899 27.888L4.4005 29.2433L5.7807 24.2012L5.45741 23.6811C4.08925 21.5057 3.36566 18.9872 3.37053 16.4174C3.37053 8.903 9.49853 2.77293 17.0295 2.77293C18.8236 2.76971 20.6007 3.12166 22.2581 3.80848C23.9156 4.49529 25.4207 5.5034 26.6868 6.77468C27.9572 8.04099 28.9643 9.54631 29.6501 11.2038C30.3358 12.8613 30.6867 14.6382 30.6823 16.4319C30.674 23.9733 24.546 30.093 17.0212 30.093V30.093ZM24.5128 19.8679C24.1046 19.6627 22.0882 18.6701 21.7089 18.5292C21.3318 18.3944 21.0561 18.324 20.7867 18.7343C20.5111 19.1426 19.7236 20.0731 19.4873 20.3404C19.2511 20.616 19.0066 20.6471 18.5962 20.444C18.188 20.2368 16.8637 19.8057 15.297 18.4027C14.0743 17.3147 13.2557 15.9677 13.0112 15.5594C12.7749 15.1491 12.9884 14.9294 13.1936 14.7243C13.3739 14.5419 13.6018 14.2435 13.807 14.0072C14.0142 13.771 14.0826 13.5969 14.2173 13.3234C14.352 13.0457 14.2878 12.8094 14.1862 12.6042C14.0826 12.3991 13.264 10.3744 12.9179 9.55787C12.5864 8.75171 12.2486 8.86362 11.9957 8.85326C11.7595 8.83875 11.4839 8.83875 11.2082 8.83875C11.0001 8.84393 10.7953 8.89207 10.6066 8.98015C10.418 9.06824 10.2495 9.19437 10.1119 9.35063C9.73478 9.76096 8.67994 10.7536 8.67994 12.7783C8.67994 14.803 10.1513 16.749 10.3586 17.0246C10.5617 17.3002 13.2474 21.4429 17.3694 23.2251C18.3434 23.65 19.1102 23.9007 19.7091 24.0914C20.6935 24.4064 21.5825 24.3587 22.2913 24.2572C23.0788 24.137 24.718 23.2624 25.0641 22.3029C25.404 21.3414 25.404 20.5207 25.3003 20.3487C25.1988 20.1746 24.9232 20.0731 24.5128 19.8679V19.8679Z" fill="white" />
</svg>
